REM DIRINDEX 1\2\5,1\2\6,1\2\7,1\2\8,1\3\9,1\3\10,1\3\11,1\4\12,1\4\13,1\4\14,1\4\15,1\4\16
REM DIRNAME folder01,folder02,folder03,folder04,folder05,folder06,folder07,folder08,folder09,folder10,folder11,folder12,folder13,folder14,folder15,folder16
TITLE ""
FILE "1200_2_sec03_1095_1110.mp3" MP3
  TRACK 01 AUDIO
    TITLE "0:"
    INDEX 01 00:00:00
  TRACK 02 AUDIO
    TITLE "10:cjc034_02259"
    INDEX 01 00:00:11
  TRACK 03 AUDIO
    TITLE "0:"
    INDEX 01 00:01:46
  TRACK 04 AUDIO
    TITLE "9:cjc034_02260"
    INDEX 01 00:01:50
  TRACK 05 AUDIO
    TITLE "0:"
    INDEX 01 00:02:61
  TRACK 06 AUDIO
    TITLE "10:cjc034_02261"
    INDEX 01 00:03:45
  TRACK 07 AUDIO
    TITLE "0:"
    INDEX 01 00:06:06
  TRACK 08 AUDIO
    TITLE "9:cjc034_02262"
    INDEX 01 00:06:12
  TRACK 09 AUDIO
    TITLE "0:"
    INDEX 01 00:07:19
  TRACK 10 AUDIO
    TITLE "10:cjc034_02263"
    INDEX 01 00:08:03
  TRACK 11 AUDIO
    TITLE "0:"
    INDEX 01 00:09:24
  TRACK 12 AUDIO
    TITLE "9:cjc034_02264"
    INDEX 01 00:09:26
  TRACK 13 AUDIO
    TITLE "0:"
    INDEX 01 00:10:35
  TRACK 14 AUDIO
    TITLE "10:cjc034_02265"
    INDEX 01 00:11:21
  TRACK 15 AUDIO
    TITLE "0:"
    INDEX 01 00:12:24
  TRACK 16 AUDIO
    TITLE "9:cjc034_02266"
    INDEX 01 00:12:26
  TRACK 17 AUDIO
    TITLE "0:"
    INDEX 01 00:13:39
  TRACK 18 AUDIO
    TITLE "10:cjc034_02267"
    INDEX 01 00:14:25
  TRACK 19 AUDIO
    TITLE "0:"
    INDEX 01 00:15:36
  TRACK 20 AUDIO
    TITLE "9:cjc034_02268"
    INDEX 01 00:15:42
  TRACK 21 AUDIO
    TITLE "0:"
    INDEX 01 00:16:48
  TRACK 22 AUDIO
    TITLE "10:cjc034_02269"
    INDEX 01 00:17:29
  TRACK 23 AUDIO
    TITLE "0:"
    INDEX 01 00:18:50
  TRACK 24 AUDIO
    TITLE "9:cjc034_02270"
    INDEX 01 00:18:52
  TRACK 25 AUDIO
    TITLE "0:"
    INDEX 01 00:19:65
  TRACK 26 AUDIO
    TITLE "10:cjc034_02271"
    INDEX 01 00:20:47
  TRACK 27 AUDIO
    TITLE "0:"
    INDEX 01 00:21:57
  TRACK 28 AUDIO
    TITLE "9:cjc034_02272"
    INDEX 01 00:21:60
  TRACK 29 AUDIO
    TITLE "0:"
    INDEX 01 00:22:70
  TRACK 30 AUDIO
    TITLE "10:cjc034_02273"
    INDEX 01 00:23:55
  TRACK 31 AUDIO
    TITLE "0:"
    INDEX 01 00:24:61
  TRACK 32 AUDIO
    TITLE "9:cjc034_02274"
    INDEX 01 00:24:65
  TRACK 33 AUDIO
    TITLE "0:"
    INDEX 01 00:25:72
  TRACK 34 AUDIO
    TITLE "10:cjc034_02275"
    INDEX 01 00:26:56
  TRACK 35 AUDIO
    TITLE "0:"
    INDEX 01 00:27:57
  TRACK 36 AUDIO
    TITLE "9:cjc034_02276"
    INDEX 01 00:27:63
  TRACK 37 AUDIO
    TITLE "0:"
    INDEX 01 00:29:01
  TRACK 38 AUDIO
    TITLE "10:cjc034_02277"
    INDEX 01 00:29:64
  TRACK 39 AUDIO
    TITLE "0:"
    INDEX 01 00:31:00
  TRACK 40 AUDIO
    TITLE "9:cjc034_02278"
    INDEX 01 00:31:10
  TRACK 41 AUDIO
    TITLE "0:"
    INDEX 01 00:32:00
  TRACK 42 AUDIO
    TITLE "10:cjc034_02279"
    INDEX 01 00:32:66
  TRACK 43 AUDIO
    TITLE "0:"
    INDEX 01 00:36:17
  TRACK 44 AUDIO
    TITLE "9:cjc034_02280"
    INDEX 01 00:36:19
  TRACK 45 AUDIO
    TITLE "0:"
    INDEX 01 00:37:40
  TRACK 46 AUDIO
    TITLE "11:cjc034_02281"
    INDEX 01 00:38:71
  TRACK 47 AUDIO
    TITLE "0:"
    INDEX 01 00:44:46
  TRACK 48 AUDIO
    TITLE "10:cjc034_02282"
    INDEX 01 00:45:16
  TRACK 49 AUDIO
    TITLE "0:"
    INDEX 01 00:46:21
  TRACK 50 AUDIO
    TITLE "9:cjc034_02283"
    INDEX 01 00:46:25
  TRACK 51 AUDIO
    TITLE "0:"
    INDEX 01 00:47:46
  TRACK 52 AUDIO
    TITLE "10:cjc034_02284"
    INDEX 01 00:48:34
  TRACK 53 AUDIO
    TITLE "0:"
    INDEX 01 00:51:22
  TRACK 54 AUDIO
    TITLE "9:cjc034_02285"
    INDEX 01 00:51:26
  TRACK 55 AUDIO
    TITLE "0:"
    INDEX 01 00:52:67
  TRACK 56 AUDIO
    TITLE "10:cjc034_02286"
    INDEX 01 00:53:49
  TRACK 57 AUDIO
    TITLE "0:"
    INDEX 01 00:54:64
  TRACK 58 AUDIO
    TITLE "9:cjc034_02287"
    INDEX 01 00:54:66
  TRACK 59 AUDIO
    TITLE "0:"
    INDEX 01 00:56:00
  TRACK 60 AUDIO
    TITLE "10:cjc034_02288"
    INDEX 01 00:56:57
  TRACK 61 AUDIO
    TITLE "0:"
    INDEX 01 00:58:46
  TRACK 62 AUDIO
    TITLE "9:cjc034_02289"
    INDEX 01 00:58:52
  TRACK 63 AUDIO
    TITLE "0:"
    INDEX 01 01:00:04
  TRACK 64 AUDIO
    TITLE "10:cjc034_02290"
    INDEX 01 01:00:59
  TRACK 65 AUDIO
    TITLE "0:"
    INDEX 01 01:01:50
  TRACK 66 AUDIO
    TITLE "9:cjc034_02291"
    INDEX 01 01:01:54
  TRACK 67 AUDIO
    TITLE "0:"
    INDEX 01 01:02:67
